<svg width="15" height="13" viewBox="0 0 15 13" fill="none" xmlns="http://www.w3.org/2000/svg">
<path d="M6.61523 12.4623L6.54199 12.3949L1.40918 7.62827C0.509766 6.79331 0 5.62144 0 4.3939V4.29722C0 2.23472 1.46484 0.465186 3.49219 0.0784668C4.64648 -0.144189 5.82715 0.122412 6.76758 0.784521C7.03125 0.972021 7.27734 1.18882 7.5 1.43784C7.62305 1.29722 7.75488 1.16831 7.89551 1.04819C8.00391 0.954443 8.11523 0.866553 8.23242 0.784521C9.17285 0.122412 10.3535 -0.144189 11.5078 0.0755372C13.5352 0.462256 15 2.23472 15 4.29722V4.3939C15 5.62144 14.4902 6.79331 13.5908 7.62827L8.45801 12.3949L8.38477 12.4623C8.14453 12.6849 7.82812 12.8109 7.5 12.8109C7.17188 12.8109 6.85547 12.6878 6.61523 12.4623ZM7.00488 2.99351C6.99316 2.98472 6.98438 2.973 6.97559 2.96128L6.4541 2.37534L6.45117 2.37241C5.77441 1.61362 4.75195 1.26792 3.75586 1.45835C2.39062 1.71909 1.40625 2.90854 1.40625 4.29722V4.3939C1.40625 5.22886 1.75488 6.02866 2.36719 6.59702L7.5 11.3636L12.6328 6.59702C13.2451 6.02866 13.5938 5.22886 13.5938 4.3939V4.29722C13.5938 2.91147 12.6094 1.71909 11.2471 1.45835C10.251 1.26792 9.22559 1.61655 8.55176 2.37241C8.55176 2.37241 8.55176 2.37241 8.54883 2.37534C8.5459 2.37827 8.54883 2.37534 8.5459 2.37827L8.02441 2.96421C8.01562 2.97593 8.00391 2.98472 7.99512 2.99644C7.86328 3.12827 7.68457 3.20151 7.5 3.20151C7.31543 3.20151 7.13672 3.12827 7.00488 2.99644V2.99351Z" fill="#57626F"/>
</svg>
